<svg width="17" height="17" viewBox="0 0 17 17" fill="none" xmlns="http://www.w3.org/2000/svg">
<path d="M10.0938 12.75H4.78125C4.07703 12.7492 3.40189 12.469 2.90393 11.9711C2.40597 11.4731 2.12584 10.798 2.125 10.0938L2.125 4.78125C2.12584 4.07703 2.40597 3.40189 2.90393 2.90393C3.40189 2.40597 4.07703 2.12584 4.78125 2.125L10.0938 2.125C10.798 2.12584 11.4731 2.40597 11.9711 2.90393C12.469 3.40189 12.7492 4.07703 12.75 4.78125V10.0938C12.7492 10.798 12.469 11.4731 11.9711 11.9711C11.4731 12.469 10.798 12.7492 10.0938 12.75ZM4.78125 3.1875C4.35856 3.1875 3.95318 3.35541 3.6543 3.6543C3.35541 3.95318 3.1875 4.35856 3.1875 4.78125V10.0938C3.1875 10.5164 3.35541 10.9218 3.6543 11.2207C3.95318 11.5196 4.35856 11.6875 4.78125 11.6875H10.0938C10.5164 11.6875 10.9218 11.5196 11.2207 11.2207C11.5196 10.9218 11.6875 10.5164 11.6875 10.0938V4.78125C11.6875 4.35856 11.5196 3.95318 11.2207 3.6543C10.9218 3.35541 10.5164 3.1875 10.0938 3.1875H4.78125ZM14.875 12.2188V5.3125C14.875 5.1716 14.819 5.03648 14.7194 4.93685C14.6198 4.83722 14.4846 4.78125 14.3438 4.78125C14.2029 4.78125 14.0677 4.83722 13.9681 4.93685C13.8685 5.03648 13.8125 5.1716 13.8125 5.3125V12.2188C13.8125 12.6414 13.6446 13.0468 13.3457 13.3457C13.0468 13.6446 12.6414 13.8125 12.2188 13.8125H5.3125C5.1716 13.8125 5.03648 13.8685 4.93685 13.9681C4.83722 14.0677 4.78125 14.2029 4.78125 14.3438C4.78125 14.4846 4.83722 14.6198 4.93685 14.7194C5.03648 14.819 5.1716 14.875 5.3125 14.875H12.2188C12.923 14.8742 13.5981 14.594 14.0961 14.0961C14.594 13.5981 14.8742 12.923 14.875 12.2188Z" fill="#222222"/>
</svg>
