<svg width="24" height="25" viewBox="0 0 24 25" fill="none" xmlns="http://www.w3.org/2000/svg">
<path d="M4.8 14.6C5.79411 14.6 6.6 13.7941 6.6 12.8C6.6 11.8059 5.79411 11 4.8 11C3.80589 11 3 11.8059 3 12.8C3 13.7941 3.80589 14.6 4.8 14.6Z" fill="#222222"/>
<path d="M12 14.6C12.9941 14.6 13.8 13.7941 13.8 12.8C13.8 11.8059 12.9941 11 12 11C11.0059 11 10.2 11.8059 10.2 12.8C10.2 13.7941 11.0059 14.6 12 14.6Z" fill="#222222"/>
<path d="M19.2 14.6C20.1941 14.6 21 13.7941 21 12.8C21 11.8059 20.1941 11 19.2 11C18.2059 11 17.4 11.8059 17.4 12.8C17.4 13.7941 18.2059 14.6 19.2 14.6Z" fill="#222222"/>
</svg>
